#Comment line ignore any data following # character 
#Hierarchical Translation and Rotation (.htr) file 
[Header]	
#Header keywords are followed by a single value 
FileType HTR		#Single word string
DataType HTRS		#Translation followed by rotation and scale data
FileVersion 1		#integer
NumSegments 25		#integer
NumFrames 6		#integer
DataFrameRate 30		#integer, data frame rate in this file
EulerRotationOrder ZYX
CalibrationUnits mm
RotationUnits Degrees
GlobalAxisofGravity Y
BoneLengthAxis Y
ScaleFactor 1.00
[SegmentNames&Hierarchy]
#CHILD	PARENT
BN_Tick_Root GLOBAL
BN_Torso BN_Tick_Root
BN_L_Leg_Front01 BN_Torso
BN_L_Leg_Rear01 BN_Torso
BN_MetalTop BN_Torso
BN_Neck BN_Torso
BN_R_Leg_Front01 BN_Torso
BN_R_Leg_Rear01 BN_Torso
BN_Sack BN_Torso
BN_L_Leg_Front02 BN_L_Leg_Front01
BN_L_Leg_Front03 BN_L_Leg_Front02
BN_L_Leg_Rear02 BN_L_Leg_Rear01
BN_L_Leg_Rear03 BN_L_Leg_Rear02
BN_Head BN_Neck
BN_Needle BN_Head
BN_R_Leg_Front02 BN_R_Leg_Front01
BN_R_Leg_Front03 BN_R_Leg_Front02
BN_R_Leg_Rear02 BN_R_Leg_Rear01
BN_R_Leg_Rear03 BN_R_Leg_Rear02
BN_SackDef01 BN_Sack
BN_SackDef02 BN_Sack
BN_SackDef03 BN_Sack
BN_SackDef04 BN_Sack
BN_SackDef05 BN_Sack
BN_SackDef06 BN_Sack
[BasePosition]
#SegmentName Tx, Ty, Tz, Rx, Ry, Rz, BoneLength
BN_Tick_Root 0.000000 0.000000 0.000000 -90.000000 0.000000 0.000000 10.000000 
BN_Torso 0.000000 0.000000 0.000000 0.000000 0.000000 0.000000 10.000000 
BN_L_Leg_Front01 0.000000 0.000000 0.000000 0.000000 0.000000 0.000000 10.000000 
BN_L_Leg_Rear01 0.000000 0.000000 0.000000 0.000000 0.000000 0.000000 10.000000 
BN_MetalTop 0.000000 0.000000 0.000000 0.000000 0.000000 0.000000 10.000000 
BN_Neck 0.000000 0.000000 0.000000 0.000000 0.000000 0.000000 10.000000 
BN_R_Leg_Front01 0.000000 0.000000 0.000000 0.000000 0.000000 0.000000 10.000000 
BN_R_Leg_Rear01 0.000000 0.000000 0.000000 0.000000 0.000000 0.000000 10.000000 
BN_Sack 0.000000 0.000000 0.000000 0.000000 0.000000 0.000000 10.000000 
BN_L_Leg_Front02 0.000000 0.000000 0.000000 0.000000 0.000000 0.000000 10.000000 
BN_L_Leg_Front03 0.000000 0.000000 0.000000 0.000000 0.000000 0.000000 10.000000 
BN_L_Leg_Rear02 0.000000 0.000000 0.000000 0.000000 0.000000 0.000000 10.000000 
BN_L_Leg_Rear03 0.000000 0.000000 0.000000 0.000000 0.000000 0.000000 10.000000 
BN_Head 0.000000 0.000000 0.000000 0.000000 0.000000 0.000000 10.000000 
BN_Needle 0.000000 0.000000 0.000000 0.000000 0.000000 0.000000 10.000000 
BN_R_Leg_Front02 0.000000 0.000000 0.000000 0.000000 0.000000 0.000000 10.000000 
BN_R_Leg_Front03 0.000000 0.000000 0.000000 0.000000 0.000000 0.000000 10.000000 
BN_R_Leg_Rear02 0.000000 0.000000 0.000000 0.000000 0.000000 0.000000 10.000000 
BN_R_Leg_Rear03 0.000000 0.000000 0.000000 0.000000 0.000000 0.000000 10.000000 
BN_SackDef01 0.000000 0.000000 0.000000 0.000000 0.000000 0.000000 10.000000 
BN_SackDef02 0.000000 0.000000 0.000000 0.000000 0.000000 0.000000 10.000000 
BN_SackDef03 0.000000 0.000000 0.000000 0.000000 0.000000 0.000000 10.000000 
BN_SackDef04 0.000000 0.000000 0.000000 0.000000 0.000000 0.000000 10.000000 
BN_SackDef05 0.000000 0.000000 0.000000 0.000000 0.000000 0.000000 10.000000 
BN_SackDef06 0.000000 0.000000 0.000000 0.000000 0.000000 0.000000 10.000000 
#Beginning of Data. Separated by tabs
#Fr	Tx	Ty	Tz	Rx	Ry	Rz	SF
[BN_Tick_Root]
79 -822.824158 732.332581 1024.964844 0.000000 -0.000000 21.772226 1504.627319
80 -816.305237 704.608887 1018.570313 0.000000 -0.000000 19.058260 1483.345337
81 -810.313599 679.127380 1012.693054 0.000000 -0.000000 16.589163 1464.025146
82 -804.954285 656.335571 1007.435913 0.000000 -0.000000 14.401109 1446.946777
83 -800.333069 636.682617 1002.903076 0.000000 -0.000000 12.529876 1432.380005
84 -796.555298 620.616577 999.197388 0.000000 -0.000000 11.011751 1420.584595
[BN_Torso]
79 -61.403549 -291.643677 90.127304 118.923363 -13.710109 -4.440090 311.366913
80 -32.525818 -273.165192 83.533699 122.139069 -13.044798 -3.458988 287.497894
81 -6.451707 -253.810165 82.065125 123.772171 -12.571974 -2.468140 266.825623
82 16.961634 -234.468430 85.009079 124.193413 -12.390116 -1.309508 249.979370
83 37.964661 -216.092957 91.443726 123.456924 -12.455813 0.174459 237.696106
84 56.885040 -199.706909 100.926323 121.467911 -12.604519 1.942587 230.878494
[BN_L_Leg_Front01]
79 -68.477791 10.734189 -26.804373 -73.417435 -6.139019 106.903526 74.316254
80 -68.477791 10.734189 -26.804373 -72.764885 -4.306320 106.542549 74.316254
81 -68.477791 10.734189 -26.804373 -72.137016 -3.021893 106.467224 74.316254
82 -68.477791 10.734189 -26.804373 -71.530533 -2.017828 106.275688 74.316254
83 -68.477791 10.734189 -26.804373 -70.990738 -1.243914 105.765297 74.316254
84 -68.477791 10.734189 -26.804373 -70.373001 -0.946764 104.804741 74.316254
[BN_L_Leg_Rear01]
79 -72.133743 -73.994843 -18.268616 85.263824 50.696354 -134.453186 104.939293
80 -72.133743 -73.994843 -18.268616 86.357422 49.895138 -134.003128 104.939293
81 -72.133743 -73.994843 -18.268616 87.008186 49.052013 -134.203857 104.939293
82 -72.133743 -73.994843 -18.268616 87.594566 48.128815 -134.674805 104.939293
83 -72.133743 -73.994843 -18.268616 88.092628 47.406586 -135.187820 104.939293
84 -72.133743 -73.994843 -18.268616 88.052307 47.025181 -135.837997 104.939293
[BN_MetalTop]
79 0.000008 13.737477 26.403606 89.998764 -21.459814 -90.000145 29.763546
80 0.000008 13.737477 26.403606 89.995476 -21.857601 -89.996864 29.763546
81 0.000008 13.737477 26.403606 89.997932 -22.413063 -89.997932 29.763546
82 0.000008 13.737477 26.403606 90.000427 -22.968533 -89.999046 29.763546
83 0.000008 13.737477 26.403606 89.999962 -23.691196 -89.999962 29.763546
84 0.000008 13.737477 26.403606 89.999496 -24.413847 -90.000862 29.763546
[BN_Neck]
79 0.000014 95.233284 10.002091 -89.998169 -39.037575 89.996895 95.757088
80 0.000014 95.233284 10.002091 -89.998169 -39.037575 89.996895 95.757088
81 0.000014 95.233284 10.002091 -89.998169 -39.037575 89.996895 95.757088
82 0.000014 95.233284 10.002091 -89.998169 -39.037575 89.996895 95.757088
83 0.000014 95.233284 10.002091 -89.998169 -39.037575 89.996895 95.757088
84 0.000014 95.233284 10.002091 -89.998169 -39.037575 89.996895 95.757088
[BN_R_Leg_Front01]
79 68.477768 10.734107 -26.804314 69.901176 -47.223526 97.548164 74.316193
80 68.477768 10.734107 -26.804314 71.090752 -45.348911 96.826988 74.316193
81 68.477768 10.734107 -26.804314 72.140121 -43.888153 96.377686 74.316193
82 68.477768 10.734107 -26.804314 72.971771 -42.649403 95.971748 74.316193
83 68.477768 10.734107 -26.804314 73.622627 -41.680378 95.444794 74.316193
84 68.477768 10.734107 -26.804314 74.415504 -41.140118 94.481934 74.316193
[BN_R_Leg_Rear01]
79 72.133751 -73.994873 -18.268644 -78.909546 62.871017 -77.164711 104.939331
80 72.133751 -73.994873 -18.268644 -80.312279 62.375759 -78.014534 104.939331
81 72.133751 -73.994873 -18.268644 -81.806290 62.014595 -79.539169 104.939331
82 72.133751 -73.994873 -18.268644 -83.146599 61.519562 -81.205406 104.939331
83 72.133751 -73.994873 -18.268644 -84.227943 61.147228 -82.440437 104.939331
84 72.133751 -73.994873 -18.268644 -85.460220 61.366360 -83.222366 104.939331
[BN_Sack]
79 -0.000000 -78.024918 33.657791 89.997726 -10.125176 -89.996231 84.974907
80 -0.000000 -78.024918 33.657791 89.998932 -10.444078 -89.997437 84.974907
81 -0.000000 -78.024918 33.657791 89.996857 -11.342123 -89.998344 84.974907
82 -0.000000 -78.024918 33.657791 89.998833 -12.700910 -89.997375 84.974907
83 -0.000000 -78.024918 33.657791 90.000000 -14.414704 -90.002960 84.974907
84 -0.000000 -78.024918 33.657791 90.000900 -16.362436 -89.999451 84.974907
[BN_L_Leg_Front02]
79 142.805023 -0.000015 -0.000104 -0.189273 1.270221 -40.205112 142.805023
80 142.805023 -0.000015 -0.000104 -0.161489 1.265573 -39.545189 142.805023
81 142.805023 -0.000015 -0.000104 -0.133760 1.260604 -38.885242 142.805023
82 142.805023 -0.000015 -0.000104 -0.106089 1.255316 -38.225296 142.805023
83 142.805023 -0.000015 -0.000104 -0.078483 1.249710 -37.565403 142.805023
84 142.805023 -0.000015 -0.000104 -0.060380 1.243813 -37.053585 142.805023
[BN_L_Leg_Front03]
79 124.143021 -0.000045 0.000007 0.354610 -0.276262 141.591049 124.143021
80 124.143021 -0.000045 0.000007 0.353323 -0.284422 140.310699 124.143021
81 124.143021 -0.000045 0.000007 0.352217 -0.292609 139.030243 124.143021
82 124.143021 -0.000045 0.000007 0.351296 -0.300819 137.749893 124.143021
83 124.143021 -0.000045 0.000007 0.353352 -0.308304 136.602371 124.143021
84 124.143021 -0.000045 0.000007 0.353195 -0.311796 135.647980 124.143021
[BN_L_Leg_Rear02]
79 139.939041 0.000075 -0.000022 -0.020042 -0.246633 124.884903 139.939041
80 139.939041 0.000075 -0.000022 -0.021672 -0.246495 125.642288 139.939041
81 139.939041 0.000075 -0.000022 -0.022370 -0.246434 125.967049 139.939041
82 139.939041 0.000075 -0.000022 -0.023069 -0.246369 126.291824 139.939041
83 139.939041 0.000075 -0.000022 -0.025019 -0.246178 127.199150 139.939041
84 139.939041 0.000075 -0.000022 -0.035737 -0.276637 128.849762 139.939041
[BN_L_Leg_Rear03]
79 142.839615 0.000179 -0.000060 0.001012 -0.002118 -141.071564 142.839615
80 142.839615 0.000179 -0.000060 0.001022 -0.002113 -141.606155 142.839615
81 142.839615 0.000179 -0.000060 0.001026 -0.002111 -141.825958 142.839615
82 142.839615 0.000179 -0.000060 0.001030 -0.002109 -142.045761 142.839615
83 142.839615 0.000179 -0.000060 0.001041 -0.002104 -142.662323 142.839615
84 142.839615 0.000179 -0.000060 0.001061 -0.002094 -143.756851 142.839615
[BN_Head]
79 57.062447 -0.000030 0.000000 0.001993 0.001239 26.260048 57.062447
80 57.062447 -0.000030 0.000000 0.001993 0.001239 26.260048 57.062447
81 57.062447 -0.000030 0.000000 0.001993 0.001239 26.260048 57.062447
82 57.062447 -0.000030 0.000000 0.001993 0.001239 26.260048 57.062447
83 57.062447 -0.000030 0.000000 0.001993 0.001239 26.260046 57.062447
84 57.062447 -0.000030 0.000000 0.001993 0.001239 26.260048 57.062447
[BN_Needle]
79 33.915195 69.677620 -0.000060 0.000003 0.000030 87.896805 77.493301
80 33.915195 69.677620 -0.000059 0.000003 0.000030 87.896805 77.493301
81 33.915195 69.677620 -0.000059 0.000003 0.000030 87.896805 77.493301
82 33.915195 69.677620 -0.000058 0.000003 0.000030 87.896805 77.493301
83 33.915195 69.677620 -0.000057 0.000003 0.000030 87.896805 77.493301
84 33.915195 69.677612 -0.000057 0.000003 0.000030 87.896805 77.493294
[BN_R_Leg_Front02]
79 142.804947 -0.000060 0.000060 -1.791569 1.474369 -67.729820 142.804947
80 142.804947 -0.000060 0.000060 -1.896413 1.440948 -69.077042 142.804947
81 142.804947 -0.000060 0.000060 -1.970592 1.417302 -70.084015 142.804947
82 142.804947 -0.000060 0.000060 -2.028256 1.393711 -70.890297 142.804947
83 142.804947 -0.000060 0.000060 -2.098398 1.364844 -71.847313 142.804947
84 142.804947 -0.000060 0.000060 -2.191594 1.319621 -73.197968 142.804947
[BN_R_Leg_Front03]
79 124.143005 -0.000060 -0.000156 -0.353686 -0.402853 -63.466366 124.143005
80 124.143005 -0.000060 -0.000156 -0.355151 -0.388847 -60.586681 124.143005
81 124.143005 -0.000060 -0.000156 -0.351236 -0.381697 -58.467266 124.143005
82 124.143005 -0.000060 -0.000156 -0.352450 -0.374149 -56.785137 124.143005
83 124.143005 -0.000060 -0.000156 -0.354404 -0.365793 -54.826401 124.143005
84 124.143005 -0.000060 -0.000156 -0.354183 -0.352852 -52.079823 124.143005
[BN_R_Leg_Rear02]
79 139.939011 -0.000149 0.000015 0.040979 -0.248598 -131.130646 139.939011
80 139.939011 -0.000149 0.000015 0.041607 -0.248494 -131.420197 139.939011
81 139.939011 -0.000149 0.000015 0.042235 -0.248386 -131.709747 139.939011
82 139.939011 -0.000149 0.000015 0.043548 -0.248159 -132.316071 139.939011
83 139.939011 -0.000149 0.000015 0.045301 -0.247846 -133.125885 139.939011
84 139.939011 -0.000149 0.000015 0.054857 -0.278156 -133.637482 139.939011
[BN_R_Leg_Rear03]
79 142.839417 0.000075 0.000119 0.002080 -0.001088 145.212555 142.839417
80 142.839417 0.000075 0.000119 0.002078 -0.001091 145.393890 142.839417
81 142.839417 0.000075 0.000119 0.002077 -0.001094 145.575241 142.839417
82 142.839417 0.000075 0.000119 0.002072 -0.001102 146.007080 142.839417
83 142.839417 0.000075 0.000119 0.002068 -0.001110 146.438919 142.839417
84 142.839417 0.000075 0.000119 0.002065 -0.001115 146.743561 142.839417
[BN_SackDef01]
79 249.782272 -3.760844 42.949425 -128.408218 -44.374973 -11.740845 253.475800
80 249.782272 -3.760844 42.949425 -128.408218 -44.374973 -11.740845 253.475800
81 249.782272 -3.760844 42.949425 -128.408218 -44.374973 -11.740845 253.475800
82 249.782272 -3.760844 42.949425 -128.408218 -44.374973 -11.740845 253.475800
83 249.782272 -3.760844 42.949425 -128.408218 -44.374973 -11.740845 253.475800
84 249.782272 -3.760844 42.949425 -128.408218 -44.374973 -11.740845 253.475800
[BN_SackDef02]
79 138.789795 -62.131748 45.674385 32.077126 -27.375721 -88.781525 158.773758
80 138.789795 -62.131748 45.674385 32.077126 -27.375721 -88.781525 158.773758
81 138.789795 -62.131748 45.674385 32.077126 -27.375721 -88.781525 158.773758
82 138.789795 -62.131748 45.674385 32.077126 -27.375721 -88.781525 158.773758
83 138.789795 -62.131748 45.674385 32.077126 -27.375721 -88.781525 158.773758
84 138.789795 -62.131748 45.674385 32.077126 -27.375721 -88.781525 158.773758
[BN_SackDef03]
79 249.782272 -3.760785 -42.949661 18.144459 44.375008 -11.740894 253.475845
80 249.782272 -3.760785 -42.949661 18.144459 44.375008 -11.740894 253.475845
81 249.782272 -3.760785 -42.949661 18.144459 44.375008 -11.740894 253.475845
82 249.782272 -3.760785 -42.949661 18.144459 44.375008 -11.740894 253.475845
83 249.782272 -3.760785 -42.949661 18.144459 44.375008 -11.740894 253.475845
84 249.782272 -3.760785 -42.949661 18.144459 44.375008 -11.740894 253.475845
[BN_SackDef04]
79 138.789780 -62.131645 -45.674473 146.059982 27.375723 -88.781555 158.773743
80 138.789780 -62.131645 -45.674473 146.059982 27.375723 -88.781555 158.773743
81 138.789780 -62.131645 -45.674473 146.059982 27.375723 -88.781555 158.773743
82 138.789780 -62.131645 -45.674473 146.059982 27.375723 -88.781555 158.773743
83 138.789780 -62.131645 -45.674473 146.059982 27.375723 -88.781555 158.773743
84 138.789780 -62.131645 -45.674473 146.059982 27.375723 -88.781555 158.773743
[BN_SackDef05]
79 118.790161 46.167137 -63.831196 0.155741 51.314110 90.605110 142.537460
80 118.790161 46.167137 -63.831196 0.155741 51.314110 90.605110 142.537460
81 118.790161 46.167137 -63.831196 0.155741 51.314110 90.605110 142.537460
82 118.790161 46.167137 -63.831196 0.155741 51.314110 90.605110 142.537460
83 118.790161 46.167137 -63.831196 0.155741 51.314110 90.605110 142.537460
84 118.790161 46.167137 -63.831196 0.155741 51.314110 90.605110 142.537460
[BN_SackDef06]
79 118.790207 46.167194 63.831219 152.058487 -51.314072 90.605019 142.537537
80 118.790207 46.167194 63.831219 152.058487 -51.314072 90.605019 142.537537
81 118.790207 46.167194 63.831219 152.058487 -51.314072 90.605019 142.537537
82 118.790207 46.167194 63.831219 152.058487 -51.314072 90.605019 142.537537
83 118.790207 46.167194 63.831219 152.058487 -51.314072 90.605019 142.537537
84 118.790207 46.167194 63.831219 152.058487 -51.314072 90.605019 142.537537
